<?xml version="1.0" standalone="no"?><svg xmlns="http://www.w3.org/2000/svg" viewBox="0 0 1440 320"><path fill="#14FF47" fill-opacity="1" d="M0,288L40,245.3C80,203,160,117,240,90.7C320,64,400,96,480,144C560,192,640,256,720,266.7C800,277,880,235,960,192C1040,149,1120,107,1200,90.7C1280,75,1360,85,1400,90.7L1440,96L1440,320L1400,320C1360,320,1280,320,1200,320C1120,320,1040,320,960,320C880,320,800,320,720,320C640,320,560,320,480,320C400,320,320,320,240,320C160,320,80,320,40,320L0,320Z"></path></svg>