<?xml version="1.0" standalone="no"?>
<!DOCTYPE svg PUBLIC "-//W3C//DTD SVG 20010904//EN"
 "http://www.w3.org/TR/2001/REC-SVG-20010904/DTD/svg10.dtd">
<svg version="1.0" xmlns="http://www.w3.org/2000/svg"
 width="260.000000pt" height="260.000000pt" viewBox="0 0 260.000000 260.000000"
 preserveAspectRatio="xMidYMid meet">
<metadata>
Created by potrace 1.14, written by Peter Selinger 2001-2017
</metadata>
<g transform="translate(0.000000,260.000000) scale(0.100000,-0.100000)"
fill="#000000" stroke="none">
<path d="M1502 1647 c-18 -5 -48 -27 -67 -49 -31 -34 -35 -44 -35 -92 0 -76
29 -108 148 -163 110 -52 132 -71 132 -117 0 -26 -8 -41 -32 -61 -29 -24 -38
-27 -90 -23 -45 3 -68 12 -103 36 l-44 31 -21 -26 c-19 -25 -20 -27 -3 -46 32
-35 96 -60 165 -65 116 -8 196 49 206 148 8 83 -31 131 -148 181 -111 47 -130
63 -130 108 0 76 85 103 175 57 46 -24 50 -24 67 -9 26 23 22 35 -16 61 -60
41 -134 52 -204 29z"/>
<path d="M897 1643 c-4 -3 -7 -132 -7 -285 l0 -278 93 0 c160 0 234 36 283
137 25 50 29 69 29 149 0 82 -4 97 -30 150 -37 70 -88 110 -164 124 -61 11
-194 14 -204 3z m231 -80 c65 -31 97 -108 90 -218 -9 -132 -63 -193 -183 -203
l-65 -5 0 228 0 228 63 -7 c34 -4 77 -14 95 -23z"/>
<path d="M563 1438 c-176 -92 -193 -104 -193 -128 0 -21 9 -31 53 -52 28 -15
116 -61 195 -102 l142 -75 0 32 c0 32 -3 34 -160 112 -88 44 -160 82 -160 85
0 3 72 41 160 85 158 78 160 80 160 112 0 18 -1 33 -2 33 -2 -1 -90 -47 -195
-102z"/>
<path d="M1840 1510 c0 -28 7 -33 160 -110 88 -45 160 -84 160 -88 0 -4 -71
-43 -158 -87 -151 -77 -157 -81 -160 -112 -2 -18 -1 -33 3 -33 3 0 93 45 200
101 262 135 262 123 1 258 -106 56 -196 101 -200 101 -3 0 -6 -13 -6 -30z"/>
</g>
</svg>
